<?xml version="1.0" encoding="utf-8"?>
<svg viewBox="61.789 66.47 394.287 106.047" xmlns="http://www.w3.org/2000/svg">
  <path d="M 153.168 76.21 L 114.9 76.21 L 114.9 71.339 C 114.9 68.455 113.219 66.47 110.768 66.47 C 108.319 66.47 106.635 68.455 106.635 71.339 L 106.635 76.21 L 68.37 76.21 C 64.695 76.21 61.789 79.636 61.789 83.963 L 61.789 131.037 C 61.789 135.365 64.695 138.792 68.37 138.792 L 85.054 138.792 L 72.349 165.122 C 71.125 167.467 71.892 170.354 74.033 171.796 C 74.492 172.337 75.259 172.337 76.023 172.337 C 77.708 172.337 78.932 171.436 79.696 169.994 L 94.39 138.792 L 106.635 138.792 L 106.635 167.649 C 106.635 170.533 108.319 172.517 110.768 172.517 C 113.219 172.517 114.9 170.533 114.9 167.649 L 114.9 138.792 L 127.605 138.792 L 142.607 169.994 C 143.371 171.436 144.595 172.337 146.279 172.337 C 147.043 172.337 147.505 172.337 148.27 171.796 C 150.26 170.354 151.176 167.467 149.954 165.122 L 136.942 138.611 L 153.322 138.611 C 156.993 138.611 159.903 135.185 159.903 130.855 L 159.903 83.963 C 159.749 79.636 156.841 76.21 153.168 76.21 Z M 151.637 129.052 L 69.901 129.052 L 69.901 85.768 L 151.483 85.768 L 151.483 129.052 L 151.637 129.052 Z" fill="#F2A92C" style=""/>
  <path d="M 213.102 138.299 C 215.4 138.299 216.868 137.83 217.501 136.894 C 218.134 135.957 218.451 134.368 218.451 132.129 L 218.451 116.982 L 213.947 116.982 L 213.947 115.266 L 234.214 115.266 L 234.214 116.982 L 231.469 116.982 L 231.469 139.002 L 230.414 139.002 C 229.569 137.702 228.374 137.051 226.823 137.051 C 226.168 137.051 224.211 137.519 220.949 138.455 C 217.69 139.393 214.908 139.862 212.609 139.862 C 204.963 139.862 199.04 137.571 194.841 132.99 C 190.641 128.408 188.542 121.522 188.542 112.337 C 188.542 103.149 190.736 96.057 195.123 91.058 C 199.509 86.06 205.407 83.562 212.819 83.562 C 215.682 83.562 218.556 83.965 221.44 84.771 C 224.327 85.58 226.003 85.983 226.473 85.983 C 226.942 85.983 227.294 85.865 227.528 85.631 C 227.763 85.396 228.021 84.994 228.304 84.422 L 229.076 84.422 L 229.639 101.367 L 228.374 101.367 C 226.075 96.316 223.764 92.346 221.44 89.457 C 219.119 86.566 216.526 85.125 213.665 85.125 C 206.486 85.125 202.898 92.907 202.898 108.472 L 202.898 114.639 C 202.898 122.448 203.777 128.343 205.537 132.325 C 207.297 136.307 209.818 138.299 213.102 138.299 Z M 255.74 139.862 C 249.685 139.862 245.149 138.13 242.122 134.667 C 239.095 131.206 237.582 126.392 237.582 120.222 C 237.582 114.055 239.284 109.33 242.687 106.052 C 246.087 102.77 250.414 101.131 255.669 101.131 C 266.317 101.131 271.432 107.065 271.01 118.935 L 251.165 118.935 L 251.165 121.979 C 251.165 127.082 251.751 130.932 252.925 133.537 C 254.098 136.138 256.138 137.44 259.047 137.44 C 264.489 137.44 268.053 134.213 269.743 127.759 L 271.01 127.991 C 270.119 131.742 268.511 134.656 266.189 136.737 C 263.87 138.82 260.383 139.862 255.74 139.862 Z M 251.234 117.373 L 258.482 117.373 L 258.482 113.549 C 258.482 109.33 258.262 106.455 257.815 104.917 C 257.37 103.381 256.479 102.615 255.141 102.615 C 253.805 102.615 252.82 103.433 252.186 105.074 C 251.553 106.714 251.234 109.539 251.234 113.549 L 251.234 117.373 Z M 273.68 101.912 L 290.642 101.912 L 290.642 109.096 C 291.393 106.701 292.542 104.777 294.09 103.318 C 295.637 101.861 297.984 101.131 301.125 101.131 C 308.398 101.131 312.035 105.478 312.035 114.172 L 312.035 137.674 L 315.975 137.674 L 315.975 139.08 L 296.059 139.08 L 296.059 137.674 L 298.945 137.674 L 298.945 112.296 C 298.945 109.174 298.756 107.157 298.383 106.244 C 298.005 105.335 297.328 104.881 296.341 104.881 C 294.841 104.881 293.516 105.974 292.365 108.159 C 291.216 110.345 290.642 113.001 290.642 116.124 L 290.642 137.674 L 293.668 137.674 L 293.668 139.08 L 273.68 139.08 L 273.68 137.674 L 277.551 137.674 L 277.551 103.318 L 273.68 103.318 L 273.68 101.912 Z M 355.521 84.422 L 355.521 86.14 L 334.691 137.284 L 337.084 137.284 C 341.304 137.284 345.023 135.787 348.237 132.794 C 351.451 129.801 353.76 125.545 355.169 120.029 L 356.435 120.029 L 355.591 139.08 L 319.558 139.08 L 319.558 137.597 L 340.602 86.14 L 337.717 86.14 C 333.542 86.14 330.374 87.155 328.216 89.186 C 326.058 91.214 323.618 95.378 320.897 101.678 L 319.63 101.678 L 320.687 84.422 L 355.521 84.422 Z M 373.377 84.422 L 409.972 84.422 L 410.677 99.882 L 409.41 99.882 C 407.439 94.624 405.375 91.019 403.216 89.067 C 401.06 87.114 397.892 86.14 393.717 86.14 L 391.254 86.14 L 391.254 110.267 L 393.647 110.267 C 395.852 110.267 397.704 109.343 399.206 107.494 C 400.708 105.647 401.762 103.163 402.373 100.038 L 403.428 100.038 L 403.428 123.151 L 402.231 123.151 C 401.388 119.246 400.249 116.463 398.818 114.796 C 397.388 113.131 395.429 112.296 392.942 112.296 L 391.254 112.296 L 391.254 137.361 L 393.927 137.361 C 398.245 137.361 401.914 135.931 404.94 133.068 C 407.967 130.205 410.044 126.536 411.169 122.057 L 412.577 122.057 L 412.015 139.08 L 373.377 139.08 L 373.377 137.361 L 377.531 137.361 L 377.531 86.14 L 373.377 86.14 L 373.377 84.422 Z M 430.813 122.918 C 430.813 128.383 431.068 132.012 431.585 133.807 C 432.102 135.603 433.051 136.503 434.434 136.503 C 435.819 136.503 437.016 135.828 438.025 134.472 C 439.032 133.12 439.539 131.117 439.539 128.46 L 439.539 111.438 C 439.539 109.199 439.14 107.301 438.342 105.738 C 437.544 104.178 436.371 103.395 434.823 103.395 C 433.276 103.395 432.218 104.541 431.656 106.832 C 431.093 109.122 430.813 113.131 430.813 118.858 L 430.813 122.918 Z M 440.453 139.08 L 439.679 133.615 C 438.084 137.779 434.846 139.862 429.967 139.862 C 425.933 139.862 422.799 138.247 420.571 135.019 C 418.342 131.793 417.228 126.978 417.228 120.576 C 417.228 107.611 421.874 101.131 431.163 101.131 C 435.291 101.131 438.013 102.405 439.326 104.958 L 439.326 81.923 L 435.033 81.923 L 435.033 80.518 L 452.627 80.518 L 452.627 137.674 L 456.076 137.674 L 456.076 139.08 L 440.453 139.08 Z" style="stroke-opacity: 0.96; white-space: pre; fill: rgb(242, 169, 44);"/>
</svg>